<?xml version="1.0" encoding="utf-8"?>
<!-- Generator: Adobe Illustrator 26.3.1, SVG Export Plug-In . SVG Version: 6.00 Build 0)  -->
<svg version="1.1" id="Layer_1" xmlns="http://www.w3.org/2000/svg" xmlns:xlink="http://www.w3.org/1999/xlink" x="0px" y="0px"
	 width="38px" height="50px" viewBox="0 0 38 50" style="enable-background:new 0 0 38 50;" xml:space="preserve">
<style type="text/css">
	.st0{fill-rule:evenodd;clip-rule:evenodd;}
</style>
<path class="st0" d="M16.0535393,32.0810852c-0.0392971,0.1334953-0.0756865,0.2459793-0.105196,0.3585968
	c-1.7073565,6.6907845-1.8967209,8.1765823-3.6518564,11.2833672c-0.8371143,1.4762688-1.7797794,2.8760719-2.8219175,4.2151947
	c-0.118227,0.151371-0.2278414,0.3471107-0.4635124,0.299221c-0.2573147-0.055069-0.2771683-0.286171-0.3052235-0.4922218
	c-0.2812138-2.0326958-0.4357176-4.0717812-0.3682528-6.1239204c0.0883446-2.6739388,0.4194059-3.5916977,3.8658648-18.085331
	c0.0503702-0.221056-0.0059843-0.4049206-0.0801229-0.6041851c-0.8244562-2.2259541-0.987443-4.484272-0.2673807-6.7736473
	c1.5600481-4.9433479,7.1644745-5.3224306,8.1447411-1.2432098c0.6034012,2.5228271-0.9934464,5.8241787-2.2195606,10.704237
	c-1.0152378,4.0267639,3.7238865,6.8890038,7.7755737,3.9496422c3.7357635-2.7098255,5.1858063-9.2061749,4.9099426-13.8101091
	C29.9235249,6.5790362,19.8580532,4.5950155,13.4713182,7.5510807C6.1501212,10.9359474,4.48594,20.0113659,7.7912054,24.1584454
	c0.4194059,0.5279751,0.7422457,0.8500328,0.6039228,1.3849239c-0.2129469,0.8305912-0.4007449,1.6671829-0.6300216,2.493206
	c-0.1709461,0.6143627-0.6854815,0.8381596-1.3067417,0.5855236c-1.2184343-0.4923515-2.2336726-1.2694397-3.0570855-2.2906799
	c-2.8076942-3.4762115-3.6106198-10.3516436,0.101002-16.1726913c4.1121054-6.44911,11.760972-9.0574112,18.7444706-8.266099
	c8.340332,0.9486865,13.6130657,6.6474605,14.600359,13.1126213c0.4496803,2.9453659,0.1259232,10.2079716-4.0083656,15.3407955
	c-4.7563305,5.898819-12.4662876,6.2896461-16.0232735,2.6692429
	C16.5409126,32.7379875,16.3215542,32.4126701,16.0535393,32.0810852z"/>
</svg>
