<?xml version="1.0" encoding="utf-8"?>
<!-- Generator: Adobe Illustrator 26.3.1, SVG Export Plug-In . SVG Version: 6.00 Build 0)  -->
<svg version="1.1" id="Layer_1" xmlns="http://www.w3.org/2000/svg" xmlns:xlink="http://www.w3.org/1999/xlink" x="0px" y="0px"
	 width="48px" height="50px" viewBox="0 0 48 50" style="enable-background:new 0 0 48 50;" xml:space="preserve">
<path d="M45.464859,11.4575729c-1.3743973,0.6216993-2.8946991,0.9986992-4.3775978,1.2479
	c0.703701-0.1185007,1.7374992-1.3930006,2.1521988-1.9085007c0.6323013-0.7859001,1.1571007-1.6817999,1.4527016-2.6492996
	c0.0383987-0.0755005,0.0662003-0.1704001-0.0093994-0.2274003c-0.0953026-0.0376997-0.1563034-0.0184999-0.2318001,0.0193
	c-1.6554031,0.8873005-3.3678017,1.5300999-5.1907005,1.9860001c-0.1504021,0.0376997-0.2631874,0-0.3579025-0.0948
	c-0.1511002-0.1702995-0.2927971-0.3312998-0.4532852-0.4637995c-0.7659988-0.6521006-1.5876122-1.1630001-2.5141144-1.5407004
	c-1.2166977-0.4956999-2.5459976-0.7058001-3.8560982-0.6209998c-1.2750015,0.0829-2.526701,0.4419999-3.6578999,1.0331001
	c-1.1338863,0.5923996-2.1458015,1.4167995-2.9514999,2.4109001c-0.8331013,1.0283995-1.4473,2.2423-1.7621002,3.5299997
	c-0.3034,1.2418003-0.2790012,2.4709997-0.093401,3.7261992c0.0277996,0.2087002,0.0093002,0.2365017-0.1789989,0.2087002
	c-7.1282005-1.0608997-13.0367002-3.6114998-17.8337002-9.077199C5.3931613,8.7996721,5.2805614,8.7996721,5.1095614,9.0548725
	c-2.0993001,3.1463003-1.0808001,8.2005005,1.5414,10.6847992c0.3498998,0.3313999,0.7089996,0.6621017,1.0959997,0.9643002
	c-0.1412001,0.0291004-1.8858862-0.1597996-3.4411998-0.9643002c-0.2082-0.1317997-0.3128002-0.0562992-0.3314002,0.1803017
	c-0.0191998,0.3398991,0.01,0.6526985,0.0569999,1.0210991c0.4023004,3.1895008,2.6108999,6.1389999,5.6361003,7.2900009
	c0.3590002,0.1511993,0.7560997,0.283699,1.1429996,0.3498993c-0.6891003,0.1511993-1.3989,0.2591-3.3748999,0.1042004
	C7.189661,28.6379719,7.095561,28.7612724,7.189661,28.9971733c1.4850998,4.0475998,4.6904144,5.2523994,7.0911999,5.9381981
	c0.3214998,0.0564003,0.6428003,0.0564003,0.9654999,0.1319008c-0.0198994,0.0292015-0.0389996,0.0292015-0.0576,0.0569992
	c-0.7958994,1.2140007-3.5564995,2.1172028-4.8427992,2.5665016c-2.3378868,0.8176994-4.8838863,1.1847992-7.3548865,0.9416008
	c-0.3958137-0.058403-0.4785137-0.0536003-0.5859137,0c-0.1087,0.0668983-0.0139,0.1618004,0.1134,0.2637978
	c0.5016,0.3313026,1.0118001,0.6249008,1.5320001,0.9085007c1.5692,0.8316994,3.2054,1.4944,4.9163995,1.9667015
	c8.8360004,2.4399986,18.788599,0.6469002,25.4232979-5.9447021c5.2098999-5.1760998,7.0362015-12.3150997,7.0362015-19.4625988
	c0-0.2796001,0.3300018-0.4341002,0.5261002-0.5818005c1.3558006-1.0185995,2.4492989-2.2372999,3.460598-3.5984001
	c0.2266006-0.3055,0.2292023-0.5771999,0.2292023-0.6890993c0-0.0193005,0-0.0372,0-0.0372
	C45.6423607,11.3429728,45.6397591,11.377573,45.464859,11.4575729z"/>
</svg>
