<?xml version="1.0" encoding="utf-8"?><svg fill="#ffffff" version="1.1" id="Layer_1" xmlns="http://www.w3.org/2000/svg" xmlns:xlink="http://www.w3.org/1999/xlink" x="0px" y="0px"  width="126px" height="20px" viewBox="0 0 126 20.1" style="enable-background:new 0 0 126 20.1;" xml:space="preserve"><polygon points="10.2,0.7 1.7,9.6 1.7,0.7 0,0.7 0,19.6 1.7,19.6 1.7,10 10.4,19.6 12.9,19.6 3.5,9.8 12.5,0.7 "/><path d="M24.7,3.5l3.2,8.2h-6.6L24.7,3.5z M24.8,0l-8.3,19.6h1.7l2.5-6.4h7.7l2.4,6.4h1.9L24.8,0z"/><polygon points="37.9,0.7 37.9,19.6 46.1,19.6 46.1,18 39.6,18 39.6,0.7 "/><polygon points="51.8,0.7 51.8,19.6 60,19.6 60,18 53.5,18 53.5,0.7 "/><rect x="67.9" y="0.7" width="1.7" height="18.9"/><g> <path d="M77.4,16.5l1.5-0.8c0.3,0.9,0.7,1.7,1.4,2.2c0.7,0.5,1.5,0.8,2.4,0.8c1.2,0,2.1-0.4,2.8-1.1c0.7-0.7,1-1.7,1-2.9  c0-0.9-0.2-1.7-0.7-2.3c-0.5-0.6-1.4-1.3-2.9-2.1c-1.9-1-3.2-1.9-3.8-2.7c-0.6-0.8-0.9-1.7-0.9-2.8c0-1.3,0.5-2.4,1.4-3.3  c0.9-0.8,2.1-1.3,3.5-1.3c0.9,0,1.8,0.2,2.5,0.6c0.7,0.4,1.3,1,1.7,1.8L86,3.5c-0.3-0.6-0.7-1-1.2-1.3c-0.5-0.3-1.1-0.4-1.8-0.4  c-0.9,0-1.7,0.3-2.2,0.8C80.3,3.2,80,3.9,80,4.8c0,1.3,1.1,2.6,3.3,3.7c0.4,0.2,0.7,0.4,0.9,0.5c1.6,0.9,2.7,1.7,3.2,2.5  c0.5,0.8,0.8,1.8,0.8,3.1c0,1.7-0.5,3-1.5,4c-1,1-2.3,1.5-4,1.5c-1.2,0-2.3-0.3-3.2-0.9C78.6,18.6,77.9,17.7,77.4,16.5"/> <polygon points="98.4,19.6 98.4,2.3 93.3,2.3 93.3,0.7 105.4,0.7 105.4,2.3 100.1,2.3 100.1,19.6  "/> <path d="M114.9,3.5l3.2,8.2h-6.6L114.9,3.5z M108.4,19.6l2.5-6.4h7.7l2.4,6.4h1.9L115,0l-8.3,19.6H108.4z"/> <path d="M123.8,18.7c0-0.6,0.4-1,1-1c0.5,0,1,0.4,1,1c0,0.6-0.4,1-1,1C124.3,19.7,123.8,19.3,123.8,18.7 M124.8,19.9  c0.7,0,1.2-0.5,1.2-1.2c0-0.7-0.6-1.2-1.2-1.2c-0.7,0-1.2,0.5-1.2,1.2C123.6,19.4,124.1,19.9,124.8,19.9 M124.6,18.8h0.2l0.4,0.6  h0.2l-0.4-0.6c0.2,0,0.4-0.1,0.4-0.4c0-0.3-0.2-0.4-0.5-0.4h-0.5v1.4h0.2V18.8z M124.6,18.7v-0.4h0.3c0.1,0,0.3,0,0.3,0.2  c0,0.2-0.2,0.2-0.3,0.2H124.6z"/></g></svg>