<?xml version="1.0" encoding="utf-8"?>
<!-- Generator: Adobe Illustrator 26.3.1, SVG Export Plug-In . SVG Version: 6.00 Build 0)  -->
<svg version="1.1" id="Layer_1" xmlns="http://www.w3.org/2000/svg" xmlns:xlink="http://www.w3.org/1999/xlink" x="0px" y="0px"
	 width="48px" height="50px" viewBox="0 0 48 50" style="enable-background:new 0 0 48 50;" xml:space="preserve">
<g>
	<g>
		<path d="M35.119133,11.4991484c-1.3596458,0-2.4621696,1.1024065-2.4621696,2.4620523
			c0,1.3601179,1.1025238,2.4625244,2.4621696,2.4625244c1.3598824,0,2.4624062-1.1024065,2.4624062-2.4625244
			C37.5815392,12.6015549,36.4790154,11.4991484,35.119133,11.4991484z"/>
		<path d="M24.1725273,14.6567621c-5.703371,0-10.3435917,4.6398687-10.3435917,10.3432379
			c0,5.7031345,4.6402206,10.3433571,10.3435917,10.3433571c5.7031326,0,10.343235-4.6402225,10.343235-10.3433571
			C34.5157623,19.2966309,29.8756599,14.6567621,24.1725273,14.6567621z M24.1725273,31.6256371
			c-3.6535854,0-6.6258564-2.9720516-6.6258564-6.6256371s2.972271-6.6255188,6.6258564-6.6255188
			c3.6532307,0,6.6251812,2.9719334,6.6251812,6.6255188S27.825758,31.6256371,24.1725273,31.6256371z"/>
		<path d="M32.3838081,46.0001869H15.6153498C8.6591444,46.0001869,3,40.3409081,3,33.3845825v-16.769165
			C3,9.6589746,8.6591444,3.9998145,15.6153498,3.9998145h16.7684593C39.3401489,3.9998145,45,9.6589746,45,16.6154175v16.769165
			C45,40.3409081,39.3401489,46.0001869,32.3838081,46.0001869z M15.6153498,7.9513121
			c-4.7776833,0-8.6642227,3.8864212-8.6642227,8.6641054v16.769165c0,4.7779198,3.886539,8.664341,8.6642227,8.664341h16.7684593
			c4.7779198,0,8.6649284-3.8864212,8.6649284-8.664341v-16.769165c0-4.7776842-3.8870087-8.6641054-8.6649284-8.6641054H15.6153498
			z"/>
	</g>
</g>
</svg>
