<?xml version="1.0" encoding="utf-8"?><svg version="1.1" id="Layer_1" xmlns="http://www.w3.org/2000/svg" xmlns:xlink="http://www.w3.org/1999/xlink" x="0px" y="0px" width="24px" height="24px" viewBox="3 3 24 24" enable-background="new 3 3 24 24" xml:space="preserve"><path d="M25.5,23.5l-6.7-6.7c0.9-1.3,1.5-2.9,1.5-4.6c0-4.5-3.7-8.1-8.1-8.1C7.7,4,4,7.7,4,12.1c0,4.5,3.7,8.1,8.1,8.1 c1.7,0,3.3-0.5,4.6-1.5l6.7,6.7c0.6,0.6,1.5,0.6,2,0C26.2,24.9,26.2,24,25.5,23.5z M6.1,12.1c0-3.3,2.7-6,6-6c3.3,0,6,2.7,6,6 c0,3.3-2.7,6-6,6C8.8,18.2,6.1,15.5,6.1,12.1z" fill="#ffffff"></path></svg>