<svg width="8" height="16" viewBox="0 0 8 16" fill="none" xmlns="http://www.w3.org/2000/svg">
<path fill-rule="evenodd" clip-rule="evenodd" d="M7.69747 0.715797C7.75635 0.745094 7.80888 0.78572 7.85203 0.835347C7.89519 0.884974 7.92813 0.942628 7.94897 1.00501C7.96981 1.06738 7.97814 1.13326 7.97348 1.19886C7.96883 1.26446 7.95127 1.3285 7.92183 1.38731L0.974432 15.3061C0.915135 15.4249 0.811073 15.5153 0.68514 15.5574C0.559207 15.5995 0.421718 15.5898 0.302919 15.5305C0.18412 15.4712 0.0937416 15.3671 0.0516673 15.2412C0.00959301 15.1153 0.0192682 14.9778 0.0785653 14.859L7.02596 0.94015C7.05526 0.881269 7.09588 0.828746 7.14551 0.785589C7.19514 0.742433 7.25279 0.709491 7.31517 0.68865C7.37755 0.66781 7.44342 0.65948 7.50902 0.664138C7.57463 0.668797 7.63867 0.686351 7.69747 0.715797Z" fill="#8694A3"/>
</svg>
